<svg width="24" height="24" viewBox="0 0 24 24" fill="none" xmlns="http://www.w3.org/2000/svg">
<path d="M21 24H4.875C4.77554 24 4.68016 23.9605 4.60984 23.8902C4.53951 23.8198 4.5 23.7245 4.5 23.625V0.375C4.5 0.275544 4.53951 0.180161 4.60984 0.109835C4.68016 0.0395088 4.77554 0 4.875 0L17.1232 0C17.2227 2.1239e-05 17.3181 0.039544 17.3884 0.109875L21.2651 3.98662C21.3355 4.05693 21.375 4.1523 21.375 4.25175V23.625C21.375 23.7245 21.3355 23.8198 21.2652 23.8902C21.1948 23.9605 21.0995 24 21 24Z" fill="url(#paint0_linear_81_4811)"/>
<path d="M20.625 24H4.5C4.40054 24 4.30516 23.9605 4.23484 23.8902C4.16451 23.8198 4.125 23.7245 4.125 23.625V0.375C4.125 0.275544 4.16451 0.180161 4.23484 0.109835C4.30516 0.0395088 4.40054 0 4.5 0L16.9035 0L21 4.0965V23.625C21 23.7245 20.9605 23.8198 20.8902 23.8902C20.8198 23.9605 20.7245 24 20.625 24Z" fill="#F0AD01"/>
<path d="M16.9043 0V3.7215C16.9043 3.82096 16.9438 3.91634 17.0141 3.98667C17.0845 4.05699 17.1798 4.0965 17.2793 4.0965H21.0008L19.1633 1.884L16.9043 0Z" fill="black"/>
<path d="M12.3052 14.5791H8.60286L7.76483 16.7555H6.53906L9.89117 8H11.0669L14.419 16.7555H13.1432L12.3052 14.5791ZM8.9906 13.5535H11.9174L10.454 9.50094L8.9906 13.5535Z" fill="white"/>
<path d="M16.0441 8H17.2198V16.7555H16.0441V8Z" fill="white"/>
<defs>
<linearGradient id="paint0_linear_81_4811" x1="12.9375" y1="-11.9951" x2="12.9375" y2="-11.0329" gradientUnits="userSpaceOnUse">
<stop stop-color="#F3F7FF"/>
<stop offset="0.99" stop-color="#B5D1FF"/>
</linearGradient>
</defs>
</svg>
