<svg width="128" height="30" viewBox="0 0 128 30" fill="none" xmlns="http://www.w3.org/2000/svg">
<path fill-rule="evenodd" clip-rule="evenodd" d="M37.614 0.657558C36.7574 0.805127 35.3451 1.25448 34.4754 1.65589C33.6054 2.0573 32.229 3.04812 31.4161 3.85759C30.5388 4.73174 29.6346 6.01481 29.1901 7.01747C28.7786 7.94592 28.2433 9.64888 28.0008 10.802C27.685 12.304 27.6005 13.8397 27.7029 16.2193C27.8034 18.5559 28.0236 20.0472 28.4454 21.25C28.7749 22.1902 29.3618 23.5074 29.7493 24.1765C30.1368 24.8459 31.1054 25.9863 31.9018 26.7109C32.6978 27.4357 34.0814 28.3151 34.9761 28.6654C36.0672 29.0925 37.4721 29.3466 39.2417 29.4373C40.7405 29.5138 42.4662 29.4298 43.2363 29.2424C43.9821 29.061 45.0737 28.7009 45.6621 28.4421L46.732 27.9717V24.2614C46.732 22.2209 46.665 20.5511 46.5834 20.5511C46.5015 20.5511 45.9009 20.9083 45.2489 21.3453C44.2574 22.0095 43.7561 22.1394 42.1877 22.1394C40.6632 22.1394 40.1319 22.0092 39.349 21.444C38.8192 21.0617 38.1415 20.1898 37.8431 19.5071C37.5446 18.8242 37.2236 17.2526 37.1298 16.0149C37.0065 14.3844 37.0898 13.2477 37.4331 11.8875C37.772 10.5432 38.1743 9.73812 38.8497 9.05052C39.5128 8.37621 40.1468 8.04266 40.9825 7.92917C41.752 7.82491 42.6083 7.93667 43.41 8.24654C44.0914 8.50991 44.9473 9.04705 45.3123 9.44009C45.6769 9.83313 46.1494 10.1548 46.3617 10.1548C46.6718 10.1548 46.732 9.34595 46.6684 6.03965L46.5894 1.92446L44.7348 1.30675C43.7147 0.967135 42.0456 0.62146 41.0256 0.538867C40.0055 0.456275 38.4702 0.5097 37.614 0.657558ZM60.2313 1.20856C58.9664 1.62528 58.01 2.21151 56.8593 3.27568C55.9243 4.14059 54.9188 5.43551 54.4523 6.37521C54.0118 7.26265 53.4429 8.92432 53.1878 10.0673C52.9193 11.2695 52.7258 13.4005 52.7287 15.1211C52.7316 16.7576 52.9196 18.9847 53.147 20.0703C53.3741 21.1558 53.8666 22.721 54.2409 23.5487C54.6153 24.3763 55.3434 25.5399 55.859 26.1345C56.3749 26.7288 57.3549 27.5463 58.0374 27.9512C58.7199 28.3561 59.9542 28.8693 60.7803 29.0919C61.6063 29.3146 63.4098 29.4982 64.7879 29.5C66.5829 29.5026 67.7961 29.3322 69.0658 28.899C70.0407 28.5666 71.3021 27.9495 71.8688 27.5273C72.4354 27.1054 73.2215 26.3701 73.6155 25.8936C74.0096 25.4171 74.6621 24.3651 75.0658 23.5559C75.4696 22.7467 76.0177 20.9955 76.2845 19.6639C76.6477 17.8489 76.7307 16.4102 76.616 13.9157C76.5099 11.6068 76.2728 10.0133 75.8416 8.71091C75.4998 7.6785 74.8336 6.22014 74.3617 5.47016C73.8895 4.7199 73.0386 3.69356 72.4708 3.18905C71.903 2.68454 70.7266 1.93716 69.8564 1.52853C68.5102 0.896383 67.8055 0.773649 65.1354 0.706362C62.6117 0.64283 61.6508 0.741017 60.2313 1.20856ZM111.553 1.19759C110.719 1.50543 109.55 2.11997 108.955 2.56296C108.361 3.00596 107.538 3.77239 107.128 4.26651C106.717 4.76033 106.06 5.81266 105.667 6.6048C105.273 7.39694 104.758 8.87725 104.521 9.89435C104.268 10.9822 104.091 13.1097 104.091 15.0642C104.092 16.8907 104.276 19.2648 104.501 20.3403C104.726 21.4154 105.321 23.0748 105.823 24.0275C106.324 24.9802 107.246 26.2272 107.871 26.7984C108.496 27.3696 109.728 28.1794 110.61 28.5981C112.085 29.2978 112.512 29.359 115.923 29.359C119.408 29.359 119.74 29.3088 121.411 28.5273C122.512 28.0127 123.688 27.1565 124.498 26.2803C125.218 25.5014 126.131 24.1479 126.527 23.272C126.923 22.3964 127.443 20.5485 127.682 19.1661C127.979 17.4461 128.064 15.7408 127.953 13.7646C127.864 12.1763 127.58 10.1621 127.322 9.28848C127.064 8.4149 126.462 6.95047 125.982 6.03445C125.503 5.11813 124.6 3.90119 123.975 3.32998C123.35 2.75876 122.118 1.95189 121.236 1.5372C119.844 0.882521 119.198 0.773361 116.351 0.710117C113.688 0.650916 112.784 0.742749 111.553 1.19759ZM7.46493 2.57422C7.20129 3.48765 5.41402 9.82273 3.49293 16.6525L0 29.0703L4.44192 29.15C7.64554 29.2077 8.94233 29.1338 9.09384 28.8857C9.2094 28.6963 9.38744 27.9784 9.48958 27.2899L9.67505 26.038H12.0826C14.1849 26.038 14.4907 26.1021 14.4922 26.5434C14.493 26.8215 14.6274 27.5362 14.7909 28.1317L15.0879 29.2146H19.8129C23.598 29.2146 24.5093 29.1393 24.394 28.8352C24.315 28.6267 22.754 23.136 20.9256 16.634C19.097 10.132 17.3451 3.93498 17.0324 2.86301L16.4635 0.91371H12.2039H7.94399L7.46493 2.57422ZM83.8241 15.0642V29.2146H88.2467H92.6692V18.674V8.13334H97.2344H101.8V4.52352V0.91371H92.8118H83.8241V15.0642ZM66.216 8.38689C66.5218 8.6904 66.8497 9.6948 67.0348 10.8956C67.2046 11.997 67.2868 14.5877 67.2177 16.6525C67.1361 19.0823 66.947 20.7114 66.6816 21.2705C66.4562 21.7455 65.9315 22.2991 65.5158 22.5007C64.9862 22.7577 64.5428 22.7837 64.0341 22.5879C63.6349 22.4343 63.0774 21.8807 62.7952 21.3577C62.3552 20.5421 62.2822 19.6668 62.2822 15.2086C62.2822 11.5491 62.3938 9.74302 62.6591 9.10683C62.8665 8.60983 63.3159 8.06345 63.6577 7.89278C63.9998 7.72182 64.6004 7.64933 64.9928 7.73164C65.3851 7.81365 65.9355 8.10879 66.216 8.38689ZM116.774 7.84282C117.219 8.01378 117.712 8.56796 117.995 9.21455C118.379 10.0901 118.471 11.2739 118.476 15.353C118.48 19.6585 118.406 20.5476 117.973 21.3577C117.694 21.8807 117.138 22.4343 116.739 22.5879C116.23 22.7837 115.787 22.7577 115.257 22.5007C114.842 22.2991 114.332 21.7747 114.123 21.3351C113.915 20.8959 113.622 19.3171 113.471 17.8267C113.298 16.1162 113.296 14.0529 113.466 12.2303C113.613 10.6426 113.882 9.0638 114.062 8.72217C114.243 8.38025 114.672 7.98635 115.014 7.84657C115.357 7.7068 115.726 7.58407 115.833 7.57396C115.941 7.56414 116.364 7.68485 116.774 7.84282ZM12.7192 17.1813L13.2316 20.2623H12.0524H10.8731L11.391 17.8798C11.676 16.5693 11.912 15.1185 11.9157 14.655C11.9194 14.1918 11.9865 13.8776 12.0646 13.9564C12.1425 14.0355 12.4373 15.4867 12.7192 17.1813Z" fill="white"/>
</svg>
