<svg width="126" height="28" viewBox="0 0 126 28" fill="none" xmlns="http://www.w3.org/2000/svg">
<path d="M37.957 28C36.4419 28 35.0038 27.7407 33.6428 27.2222C32.2817 26.6778 31.0748 25.8481 30.0219 24.7333C28.969 23.5926 28.1344 22.1537 27.5181 20.4167C26.9018 18.6796 26.5936 16.6056 26.5936 14.1944V13.4167C26.5936 11.0833 26.9018 9.07407 27.5181 7.38889C28.1344 5.7037 28.969 4.31667 30.0219 3.22778C31.0748 2.13889 32.2817 1.33519 33.6428 0.816668C35.0038 0.272223 36.4419 0 37.957 0C39.4207 0 40.7561 0.194444 41.963 0.583333C43.1956 0.972223 44.2742 1.52963 45.1987 2.25556C46.1231 2.98148 46.8679 3.87593 47.4328 4.93889C48.0235 6.00185 48.3958 7.20741 48.5499 8.55556H44.6979C44.3384 6.79259 43.5808 5.47037 42.4253 4.58889C41.2697 3.70741 39.7802 3.26667 37.957 3.26667C37.0068 3.26667 36.0823 3.44815 35.1835 3.81111C34.2848 4.17407 33.4758 4.75741 32.7568 5.56111C32.0634 6.33889 31.4985 7.37593 31.0619 8.67222C30.6511 9.96852 30.4456 11.55 30.4456 13.4167V14.1944C30.4456 16.1648 30.6767 17.8241 31.139 19.1722C31.6012 20.4944 32.1918 21.5704 32.9109 22.4C33.6299 23.2296 34.4388 23.8259 35.3376 24.1889C36.2364 24.5518 37.1095 24.7333 37.957 24.7333C39.96 24.7333 41.5265 24.2407 42.6564 23.2556C43.7863 22.2704 44.4668 21 44.6979 19.4444H48.5499C48.3444 20.9481 47.9336 22.2444 47.3173 23.3333C46.7009 24.3963 45.9177 25.2778 44.9676 25.9778C44.0431 26.6778 42.9774 27.1963 41.7704 27.5333C40.5891 27.8444 39.318 28 37.957 28Z" fill="white"/>
<path d="M82.8294 0.388888H99.7781V3.57778H86.4503V27.6111H82.8294V0.388888Z" fill="white"/>
<path fill-rule="evenodd" clip-rule="evenodd" d="M20.3384 27.6111L17.7576 20.8444L16.5635 17.6556L12.0567 5.05555L7.54986 17.6556L6.35575 20.8444L3.77493 27.6111H0L10.3233 0.388888H13.9441L24.2674 27.6111H20.3384ZM14.3101 17.6556H12.0567H9.80327L8.85952 20.8444H12.0567H15.195L14.3101 17.6556Z" fill="white"/>
<path fill-rule="evenodd" clip-rule="evenodd" d="M64.7161 28C63.1753 28 61.6859 27.7407 60.2478 27.2222C58.8098 26.6778 57.5386 25.8481 56.4344 24.7333C55.3302 23.6185 54.4442 22.1926 53.7765 20.4556C53.1089 18.7185 52.775 16.6315 52.775 14.1944V13.4167C52.775 11.0833 53.1089 9.07407 53.7765 7.38889C54.4442 5.7037 55.3302 4.31667 56.4344 3.22778C57.5386 2.11296 58.8098 1.2963 60.2478 0.777777L61.6731 3.85C60.6972 4.23889 59.837 4.84815 59.0923 5.67778C58.3475 6.48148 57.7441 7.53148 57.2818 8.82778C56.8453 10.0981 56.627 11.6278 56.627 13.4167V14.1944C56.627 16.087 56.8453 17.7074 57.2818 19.0556C57.7441 20.3778 58.3475 21.4667 59.0923 22.3222C59.837 23.1518 60.6972 23.7611 61.6731 24.15C62.6489 24.5389 63.6633 24.7333 64.7161 24.7333V28ZM67.7592 3.85C66.7834 3.46111 65.769 3.26667 64.7161 3.26667V0C66.2569 0 67.7463 0.259259 69.1844 0.777777C70.6225 1.2963 71.8936 2.11296 72.9979 3.22778C74.1021 4.31667 74.9881 5.7037 75.6557 7.38889C76.3234 9.07407 76.6572 11.0833 76.6572 13.4167V14.1944C76.6572 16.6315 76.3234 18.7185 75.6557 20.4556C74.9881 22.1926 74.1021 23.6185 72.9979 24.7333C71.8936 25.8481 70.6225 26.6778 69.1844 27.2222L67.7592 24.15C68.735 23.7611 69.5953 23.1518 70.34 22.3222C71.0847 21.4667 71.6754 20.3778 72.1119 19.0556C72.5742 17.7074 72.8053 16.087 72.8053 14.1944V13.4167C72.8053 11.6278 72.5742 10.0981 72.1119 8.82778C71.6754 7.53148 71.0847 6.48148 70.34 5.67778C69.5953 4.84815 68.735 4.23889 67.7592 3.85Z" fill="white"/>
<path fill-rule="evenodd" clip-rule="evenodd" d="M114.059 28C112.518 28 111.029 27.7407 109.591 27.2222C108.153 26.6778 106.881 25.8481 105.777 24.7333C104.673 23.6185 103.787 22.1926 103.119 20.4556C102.452 18.7185 102.118 16.6315 102.118 14.1944V13.4167C102.118 11.0833 102.452 9.07407 103.119 7.38889C103.787 5.7037 104.673 4.31667 105.777 3.22778C106.881 2.11296 108.153 1.2963 109.591 0.777777L111.016 3.85C110.04 4.23889 109.18 4.84815 108.435 5.67778C107.69 6.48148 107.087 7.53148 106.625 8.82778C106.188 10.0981 105.97 11.6278 105.97 13.4167V14.1944C105.97 16.087 106.188 17.7074 106.625 19.0556C107.087 20.3778 107.69 21.4667 108.435 22.3222C109.18 23.1518 110.04 23.7611 111.016 24.15C111.992 24.5389 113.006 24.7333 114.059 24.7333V28ZM117.102 3.85C116.126 3.46111 115.112 3.26667 114.059 3.26667V0C115.6 0 117.089 0.259259 118.527 0.777777C119.965 1.2963 121.236 2.11296 122.341 3.22778C123.445 4.31667 124.331 5.7037 124.998 7.38889C125.666 9.07407 126 11.0833 126 13.4167V14.1944C126 16.6315 125.666 18.7185 124.998 20.4556C124.331 22.1926 123.445 23.6185 122.341 24.7333C121.236 25.8481 119.965 26.6778 118.527 27.2222L117.102 24.15C118.078 23.7611 118.938 23.1518 119.683 22.3222C120.427 21.4667 121.018 20.3778 121.455 19.0556C121.917 17.7074 122.148 16.087 122.148 14.1944V13.4167C122.148 11.6278 121.917 10.0981 121.455 8.82778C121.018 7.53148 120.427 6.48148 119.683 5.67778C118.938 4.84815 118.078 4.23889 117.102 3.85Z" fill="white"/>
</svg>
