<svg width="109" height="56" viewBox="0 0 109 56" fill="none" xmlns="http://www.w3.org/2000/svg">
<g filter="url(#filter0_d_827_3067)">
<rect x="9" y="7" width="90.5965" height="38.3293" rx="3.48448" fill="#123295"/>
<path d="M39.0618 34.8758C38.14 34.8758 37.2651 34.7145 36.437 34.3919C35.609 34.0531 34.8747 33.5369 34.2341 32.8432C33.5935 32.1334 33.0858 31.2381 32.7108 30.1573C32.3358 29.0764 32.1484 27.7859 32.1484 26.2856V25.8017C32.1484 24.3498 32.3358 23.0996 32.7108 22.051C33.0858 21.0024 33.5935 20.1394 34.2341 19.4618C34.8747 18.7843 35.609 18.2842 36.437 17.9616C37.2651 17.6228 38.14 17.4534 39.0618 17.4534C39.9524 17.4534 40.7648 17.5744 41.4991 17.8164C42.249 18.0584 42.9052 18.4052 43.4677 18.8569C44.0301 19.3086 44.4832 19.8651 44.8269 20.5265C45.1863 21.188 45.4128 21.9381 45.5066 22.7769H43.163C42.9443 21.68 42.4834 20.8573 41.7803 20.3088C41.0773 19.7603 40.1711 19.486 39.0618 19.486C38.4837 19.486 37.9213 19.599 37.3745 19.8248C36.8276 20.0507 36.3355 20.4136 35.898 20.9137C35.4762 21.3977 35.1325 22.0429 34.8669 22.8495C34.6169 23.6561 34.4919 24.6402 34.4919 25.8017V26.2856C34.4919 27.5116 34.6325 28.5441 34.9137 29.3829C35.195 30.2057 35.5543 30.8751 35.9918 31.3913C36.4292 31.9076 36.9214 32.2786 37.4682 32.5044C38.015 32.7303 38.5462 32.8432 39.0618 32.8432C40.2805 32.8432 41.2335 32.5367 41.9209 31.9237C42.6084 31.3107 43.0224 30.5202 43.163 29.5523H45.5066C45.3816 30.488 45.1316 31.2946 44.7566 31.9721C44.3817 32.6335 43.9051 33.182 43.3271 33.6175C42.7646 34.0531 42.1162 34.3757 41.3819 34.5855C40.6632 34.779 39.8899 34.8758 39.0618 34.8758Z" fill="white"/>
<path d="M66.3623 17.6954H76.6739V19.6796H68.5652V34.6339H66.3623V17.6954Z" fill="white"/>
<path fill-rule="evenodd" clip-rule="evenodd" d="M28.3427 34.6339L26.7725 30.4234L26.046 28.4392L23.304 20.5991L20.5621 28.4392L19.8356 30.4234L18.2654 34.6339H15.9688L22.2494 17.6954H24.4524L30.7331 34.6339H28.3427ZM24.675 28.4392H23.304H21.9331L21.3589 30.4234H23.304H25.2134L24.675 28.4392Z" fill="white"/>
<path fill-rule="evenodd" clip-rule="evenodd" d="M55.3421 34.8758C54.4047 34.8758 53.4985 34.7145 52.6236 34.3919C51.7487 34.0531 50.9753 33.5369 50.3035 32.8432C49.6317 32.1495 49.0927 31.2623 48.6865 30.1815C48.2802 29.1006 48.0771 27.802 48.0771 26.2856V25.8017C48.0771 24.3498 48.2802 23.0996 48.6865 22.051C49.0927 21.0024 49.6317 20.1394 50.3035 19.4618C50.9753 18.7682 51.7487 18.26 52.6236 17.9374L53.4907 19.849C52.897 20.091 52.3736 20.4701 51.9206 20.9863C51.4675 21.4864 51.1003 22.1397 50.8191 22.9463C50.5535 23.7368 50.4207 24.6886 50.4207 25.8017V26.2856C50.4207 27.4632 50.5535 28.4715 50.8191 29.3103C51.1003 30.1331 51.4675 30.8106 51.9206 31.343C52.3736 31.8592 52.897 32.2383 53.4907 32.4803C54.0844 32.7222 54.7016 32.8432 55.3421 32.8432V34.8758ZM57.1935 19.849C56.5998 19.607 55.9827 19.486 55.3421 19.486V17.4534C56.2795 17.4534 57.1857 17.6147 58.0606 17.9374C58.9356 18.26 59.7089 18.7682 60.3807 19.4618C61.0526 20.1394 61.5916 21.0024 61.9978 22.051C62.404 23.0996 62.6071 24.3498 62.6071 25.8017V26.2856C62.6071 27.802 62.404 29.1006 61.9978 30.1815C61.5916 31.2623 61.0526 32.1495 60.3807 32.8432C59.7089 33.5369 58.9356 34.0531 58.0606 34.3919L57.1935 32.4803C57.7872 32.2383 58.3106 31.8592 58.7637 31.343C59.2168 30.8106 59.5761 30.1331 59.8417 29.3103C60.123 28.4715 60.2636 27.4632 60.2636 26.2856V25.8017C60.2636 24.6886 60.123 23.7368 59.8417 22.9463C59.5761 22.1397 59.2168 21.4864 58.7637 20.9863C58.3106 20.4701 57.7872 20.091 57.1935 19.849Z" fill="white"/>
<path fill-rule="evenodd" clip-rule="evenodd" d="M85.3623 34.8758C84.4249 34.8758 83.5187 34.7145 82.6438 34.3919C81.7689 34.0531 80.9955 33.5369 80.3237 32.8432C79.6519 32.1495 79.1129 31.2623 78.7067 30.1815C78.3004 29.1006 78.0973 27.802 78.0973 26.2856V25.8017C78.0973 24.3498 78.3004 23.0996 78.7067 22.051C79.1129 21.0024 79.6519 20.1394 80.3237 19.4618C80.9955 18.7682 81.7689 18.26 82.6438 17.9374L83.5109 19.849C82.9172 20.091 82.3938 20.4701 81.9407 20.9863C81.4877 21.4864 81.1205 22.1397 80.8393 22.9463C80.5737 23.7368 80.4409 24.6886 80.4409 25.8017V26.2856C80.4409 27.4632 80.5737 28.4715 80.8393 29.3103C81.1205 30.1331 81.4877 30.8106 81.9407 31.343C82.3938 31.8592 82.9172 32.2383 83.5109 32.4803C84.1046 32.7222 84.7218 32.8432 85.3623 32.8432V34.8758ZM87.2137 19.849C86.62 19.607 86.0029 19.486 85.3623 19.486V17.4534C86.2997 17.4534 87.2059 17.6147 88.0808 17.9374C88.9558 18.26 89.7291 18.7682 90.4009 19.4618C91.0728 20.1394 91.6118 21.0024 92.018 22.051C92.4242 23.0996 92.6273 24.3498 92.6273 25.8017V26.2856C92.6273 27.802 92.4242 29.1006 92.018 30.1815C91.6118 31.2623 91.0728 32.1495 90.4009 32.8432C89.7291 33.5369 88.9558 34.0531 88.0808 34.3919L87.2137 32.4803C87.8074 32.2383 88.3308 31.8592 88.7839 31.343C89.237 30.8106 89.5963 30.1331 89.8619 29.3103C90.1432 28.4715 90.2838 27.4632 90.2838 26.2856V25.8017C90.2838 24.6886 90.1432 23.7368 89.8619 22.9463C89.5963 22.1397 89.237 21.4864 88.7839 20.9863C88.3308 20.4701 87.8074 20.091 87.2137 19.849Z" fill="white"/>
</g>
<path d="M56.1631 48.6386C54.8023 49.9994 52.5961 49.9994 51.2353 48.6386L43.8436 41.2469H53.6992H63.5548L56.1631 48.6386Z" fill="#123295"/>
<defs>
<filter id="filter0_d_827_3067" x="0.2888" y="0.0310401" width="108.018" height="55.7517" filterUnits="userSpaceOnUse" color-interpolation-filters="sRGB">
<feFlood flood-opacity="0" result="BackgroundImageFix"/>
<feColorMatrix in="SourceAlpha" type="matrix" values="0 0 0 0 0 0 0 0 0 0 0 0 0 0 0 0 0 0 127 0" result="hardAlpha"/>
<feOffset dy="1.74224"/>
<feGaussianBlur stdDeviation="4.3556"/>
<feComposite in2="hardAlpha" operator="out"/>
<feColorMatrix type="matrix" values="0 0 0 0 0 0 0 0 0 0 0 0 0 0 0 0 0 0 0.25 0"/>
<feBlend mode="normal" in2="BackgroundImageFix" result="effect1_dropShadow_827_3067"/>
<feBlend mode="normal" in="SourceGraphic" in2="effect1_dropShadow_827_3067" result="shape"/>
</filter>
</defs>
</svg>
