<svg width="24" height="24" viewBox="0 0 24 24" fill="none" xmlns="http://www.w3.org/2000/svg">
<path d="M21 24H4.875C4.77554 24 4.68016 23.9605 4.60984 23.8902C4.53951 23.8198 4.5 23.7245 4.5 23.625V0.375C4.5 0.275544 4.53951 0.180161 4.60984 0.109835C4.68016 0.0395088 4.77554 0 4.875 0L17.1232 0C17.2227 2.1239e-05 17.3181 0.039544 17.3884 0.109875L21.2651 3.98662C21.3355 4.05693 21.375 4.1523 21.375 4.25175V23.625C21.375 23.7245 21.3355 23.8198 21.2652 23.8902C21.1948 23.9605 21.0995 24 21 24Z" fill="url(#paint0_linear_81_4755)"/>
<path d="M2.625 12.3547L4.125 11.6921L5.172 13.299H2.625V12.3547Z" fill="url(#paint1_linear_81_4755)"/>
<path d="M20.625 24H4.5C4.40054 24 4.30516 23.9605 4.23484 23.8902C4.16451 23.8198 4.125 23.7245 4.125 23.625V0.375C4.125 0.275544 4.16451 0.180161 4.23484 0.109835C4.30516 0.0395088 4.40054 0 4.5 0L16.9035 0L21 4.0965V23.625C21 23.7245 20.9605 23.8198 20.8902 23.8902C20.8198 23.9605 20.7245 24 20.625 24Z" fill="#D72222"/>
<path d="M16.9043 0V3.7215C16.9043 3.82096 16.9438 3.91634 17.0141 3.98667C17.0845 4.05699 17.1798 4.0965 17.2793 4.0965H21.0008L19.1633 1.884L16.9043 0Z" fill="url(#paint2_linear_81_4755)"/>
<path d="M17.2583 19.6876H3.28875C3.20157 19.6876 3.11524 19.6705 3.03469 19.6371C2.95413 19.6038 2.88094 19.5549 2.8193 19.4933C2.75765 19.4316 2.70876 19.3584 2.67542 19.2779C2.64209 19.1973 2.62495 19.111 2.625 19.0238V13.0178H17.2583C17.4343 13.0179 17.603 13.0879 17.7275 13.2123C17.8519 13.3368 17.9219 13.5056 17.922 13.6816V19.0238C17.922 19.1999 17.8521 19.3687 17.7276 19.4932C17.6031 19.6176 17.4343 19.6876 17.2583 19.6876Z" fill="url(#paint3_linear_81_4755)"/>
<path d="M4.125 11.6921H3.288C3.20095 11.692 3.11475 11.7091 3.03431 11.7424C2.95387 11.7757 2.88078 11.8245 2.81921 11.886C2.75764 11.9476 2.7088 12.0206 2.67548 12.101C2.64215 12.1815 2.625 12.2677 2.625 12.3547C2.62495 12.4418 2.64207 12.528 2.67537 12.6085C2.70867 12.6889 2.7575 12.762 2.81908 12.8236C2.88065 12.8852 2.95376 12.934 3.03422 12.9673C3.11468 13.0006 3.20092 13.0178 3.288 13.0177H4.125V11.6921Z" fill="url(#paint4_linear_81_4755)"/>
<path d="M5.625 17.638V15.0678C5.62495 15.025 5.63333 14.9826 5.64967 14.9431C5.66601 14.9036 5.68997 14.8676 5.7202 14.8374C5.75043 14.8071 5.78633 14.7831 5.82585 14.7667C5.86537 14.7503 5.90772 14.7419 5.9505 14.7419C6.44814 14.7228 6.94652 14.739 7.44188 14.7903C7.64232 14.8484 7.81653 14.974 7.93508 15.1458C8.05363 15.3176 8.10923 15.525 8.0925 15.733C8.10729 15.9535 8.04312 16.1721 7.91148 16.3497C7.77984 16.5272 7.58931 16.6521 7.374 16.702C7.04418 16.7415 6.71193 16.7569 6.37988 16.7481C6.35213 16.7481 6.32552 16.7592 6.30589 16.7788C6.28627 16.7984 6.27525 16.825 6.27525 16.8528V17.638C6.27525 17.6807 6.26684 17.723 6.2505 17.7624C6.23416 17.8019 6.21021 17.8377 6.18002 17.8679C6.14983 17.8981 6.11399 17.9221 6.07455 17.9384C6.0351 17.9547 5.99282 17.9631 5.95013 17.9631C5.8639 17.9631 5.7812 17.9289 5.72023 17.8679C5.65925 17.8069 5.625 17.7242 5.625 17.638ZM6.27525 15.3918V16.0964C6.27525 16.1241 6.28627 16.1508 6.30589 16.1704C6.32552 16.19 6.35213 16.201 6.37988 16.201C6.63612 16.2187 6.89357 16.2017 7.14525 16.1504C7.23426 16.115 7.30926 16.0515 7.35885 15.9695C7.40844 15.8876 7.4299 15.7917 7.41997 15.6964C7.41003 15.6012 7.36925 15.5117 7.30382 15.4418C7.23839 15.3718 7.15189 15.3252 7.0575 15.3089C6.83218 15.2895 6.60598 15.2821 6.37988 15.2868C6.36614 15.2868 6.35254 15.2896 6.33987 15.2949C6.32719 15.3002 6.31568 15.3079 6.306 15.3177C6.29632 15.3274 6.28866 15.339 6.28345 15.3517C6.27823 15.3644 6.27558 15.378 6.27563 15.3918H6.27525Z" fill="white"/>
<path d="M8.625 15.0678C8.62495 15.025 8.63333 14.9827 8.64967 14.9431C8.66601 14.9036 8.68997 14.8677 8.7202 14.8374C8.75043 14.8071 8.78633 14.7831 8.82585 14.7667C8.86537 14.7504 8.90772 14.7419 8.9505 14.7419C9.44331 14.7125 9.93784 14.7331 10.4265 14.8034C10.6156 14.8646 10.7869 14.9712 10.9252 15.1139C11.0635 15.2566 11.1648 15.4311 11.22 15.6221C11.2961 15.8684 11.3317 16.1255 11.3254 16.3833C11.3303 16.6157 11.2968 16.8473 11.2264 17.0688C11.1747 17.2636 11.0737 17.4418 10.9333 17.5863C10.7928 17.7308 10.6175 17.8367 10.4242 17.8938C9.93624 17.9629 9.4428 17.9857 8.9505 17.9621C8.86437 17.9621 8.78174 17.9279 8.72073 17.8671C8.65972 17.8063 8.6253 17.7238 8.625 17.6377V15.0678ZM9.27525 15.3918V17.3159C9.27525 17.3437 9.28627 17.3703 9.30589 17.3899C9.32551 17.4095 9.35213 17.4206 9.37987 17.4206C9.63839 17.4348 9.89768 17.4245 10.1542 17.3898C10.2625 17.367 10.3614 17.3125 10.4385 17.2333C10.5156 17.154 10.5673 17.0535 10.587 16.9447C10.6368 16.7522 10.659 16.5536 10.653 16.3548C10.6599 16.1615 10.6377 15.9682 10.587 15.7814C10.5586 15.6656 10.4975 15.5604 10.4111 15.4781C10.3247 15.3959 10.2166 15.3402 10.0995 15.3176C9.85996 15.2912 9.61892 15.2809 9.378 15.2868C9.35045 15.2872 9.32416 15.2984 9.30485 15.3181C9.28555 15.3378 9.27477 15.3643 9.27487 15.3918H9.27525Z" fill="white"/>
<path d="M11.8809 17.6381V15.0678C11.8809 14.9814 11.9152 14.8985 11.9763 14.8374C12.0374 14.7763 12.1203 14.7419 12.2067 14.7419H13.8166C13.8889 14.7419 13.9583 14.7707 14.0094 14.8218C14.0605 14.8729 14.0892 14.9423 14.0892 15.0146C14.0892 15.0504 14.0822 15.0858 14.0685 15.1188C14.0548 15.1519 14.0347 15.1819 14.0094 15.2072C13.984 15.2325 13.954 15.2525 13.9209 15.2662C13.8878 15.2799 13.8524 15.2869 13.8166 15.2868H12.6376C12.6238 15.2868 12.6102 15.2895 12.5975 15.2948C12.5848 15.3001 12.5732 15.3078 12.5635 15.3176C12.5538 15.3274 12.5461 15.3389 12.5408 15.3517C12.5356 15.3644 12.5329 15.378 12.533 15.3918V15.9446C12.5329 15.9583 12.5356 15.972 12.5408 15.9847C12.5461 15.9975 12.5538 16.009 12.5635 16.0188C12.5732 16.0286 12.5848 16.0363 12.5975 16.0416C12.6102 16.0469 12.6238 16.0496 12.6376 16.0496H13.6051C13.6773 16.0496 13.7466 16.0782 13.7978 16.1293C13.8489 16.1803 13.8776 16.2496 13.8777 16.3218C13.8776 16.3941 13.8489 16.4634 13.7978 16.5145C13.7467 16.5656 13.6774 16.5943 13.6051 16.5944H12.6376C12.6239 16.5944 12.6103 16.5972 12.5976 16.6024C12.5849 16.6077 12.5733 16.6154 12.5636 16.6251C12.5539 16.6348 12.5462 16.6463 12.5409 16.659C12.5357 16.6717 12.533 16.6853 12.533 16.6991V17.6366C12.5329 17.7228 12.4985 17.8055 12.4375 17.8665C12.3765 17.9275 12.2937 17.9617 12.2075 17.9617C12.1648 17.9619 12.1225 17.9537 12.083 17.9375C12.0434 17.9214 12.0075 17.8976 11.9771 17.8675C11.9468 17.8375 11.9227 17.8018 11.9062 17.7624C11.8897 17.723 11.8811 17.6808 11.8809 17.6381Z" fill="white"/>
<defs>
<linearGradient id="paint0_linear_81_4755" x1="12.9375" y1="-11.9951" x2="12.9375" y2="-11.0329" gradientUnits="userSpaceOnUse">
<stop stop-color="#F3F7FF"/>
<stop offset="0.99" stop-color="#B5D1FF"/>
</linearGradient>
<linearGradient id="paint1_linear_81_4755" x1="3.8985" y1="11.4183" x2="3.8985" y2="44.8871" gradientUnits="userSpaceOnUse">
<stop stop-color="#FF5252"/>
<stop offset="1" stop-color="#D50000"/>
</linearGradient>
<linearGradient id="paint2_linear_81_4755" x1="223.933" y1="-95.9769" x2="223.933" y2="-16.3819" gradientUnits="userSpaceOnUse">
<stop stop-color="#F3F7FF"/>
<stop offset="0.99" stop-color="#B5D1FF"/>
</linearGradient>
<linearGradient id="paint3_linear_81_4755" x1="421.702" y1="229.905" x2="421.702" y2="579.626" gradientUnits="userSpaceOnUse">
<stop stop-color="#FF5252"/>
<stop offset="1" stop-color="#D50000"/>
</linearGradient>
<linearGradient id="paint4_linear_81_4755" x1="16.125" y1="33.3276" x2="16.125" y2="69.5689" gradientUnits="userSpaceOnUse">
<stop stop-color="#FF5252"/>
<stop offset="1" stop-color="#D50000"/>
</linearGradient>
</defs>
</svg>
