<svg width="24" height="24" viewBox="0 0 24 24" fill="none" xmlns="http://www.w3.org/2000/svg">
<g clip-path="url(#clip0_173_8073)">
<path d="M22.9928 7.07058L20.5426 5.60462L19.9905 3.31946C19.7454 2.30597 18.8067 1.63032 17.7774 1.71132L14.9739 1.9283L13.3678 0.506303C12.5768 -0.16865 11.426 -0.16865 10.6322 0.5056L9.02617 1.92826L6.22257 1.71127C5.20497 1.63988 4.25396 2.30658 4.03492 3.2363C3.98959 3.37721 3.17082 5.92229 3.22398 5.75696L1.00764 7.06983C0.119825 7.61504 -0.235862 8.70952 0.161684 9.67224L1.11817 11.9903L0.162388 14.3078C-0.235862 15.2712 0.120481 16.365 1.00764 16.9095L3.45536 18.3652L4.00947 20.6607C4.25322 21.6735 5.18776 22.3457 6.22253 22.2688L8.99589 22.0546L10.6322 23.4933C11.0284 23.8311 11.5139 24 12 24C12.4854 24 12.9716 23.8311 13.3678 23.4932L15.0041 22.0546L17.7774 22.2688C18.8253 22.3518 19.7468 21.6741 19.9905 20.6606L20.5426 18.3755L22.9928 16.9095C23.8792 16.365 24.2349 15.2712 23.838 14.3078L22.8815 11.9904L23.8387 9.67158C24.2356 8.70961 23.8799 7.61508 22.9928 7.07058ZM12 19.7344C7.73528 19.7344 4.26564 16.2647 4.26564 12C4.26564 7.73527 7.73528 4.26563 12 4.26563C16.2647 4.26563 19.7344 7.73527 19.7344 12C19.7344 16.2647 16.2647 19.7344 12 19.7344Z" fill="#123295"/>
<path d="M12 5.67188C8.51048 5.67188 5.67188 8.51048 5.67188 12C5.67188 15.4895 8.51048 18.3281 12 18.3281C15.4895 18.3281 18.3281 15.4895 18.3281 12C18.3281 8.51048 15.4895 5.67188 12 5.67188ZM16.0127 10.3877L11.794 14.6065C11.6566 14.7438 11.4767 14.8125 11.2969 14.8125C11.117 14.8125 10.9371 14.7438 10.7998 14.6065L7.98727 11.794C7.71263 11.5193 7.71263 11.0744 7.98727 10.7997C8.26191 10.5251 8.70689 10.5251 8.98153 10.7997L11.2969 13.1151L15.0185 9.39347C15.2932 9.11883 15.7381 9.11883 16.0128 9.39347C16.2874 9.66811 16.2874 10.1131 16.0127 10.3877Z" fill="#123295"/>
</g>
<defs>
<clipPath id="clip0_173_8073">
<rect width="24" height="24" fill="white"/>
</clipPath>
</defs>
</svg>
