<svg width="24" height="24" viewBox="0 0 24 24" fill="none" xmlns="http://www.w3.org/2000/svg">
<g clip-path="url(#clip0_60_1287)">
<path d="M1.40625 9.1875C1.40625 8.02439 2.35252 7.07812 3.51562 7.07812H15.7031C16.8662 7.07812 17.8125 8.02439 17.8125 9.1875V9.89062H19.2187V7.54687C19.2187 6.513 18.3776 5.67187 17.3437 5.67187H8.90625V4.73437C8.90625 3.7005 8.06512 2.85938 7.03125 2.85938H1.875C0.841125 2.85938 0 3.7005 0 4.73437V17.5814L1.40625 15.3299V9.1875Z" fill="#123295"/>
<path d="M15.7031 8.48438H3.51562C3.12731 8.48438 2.8125 8.79919 2.8125 9.1875V13.0783L4.18392 10.8825C4.57195 10.2614 5.24077 9.89063 5.973 9.89063H16.4062V9.1875C16.4062 8.79919 16.0914 8.48438 15.7031 8.48438Z" fill="#123295"/>
<path d="M18.5175 21.1407H0.70504C0.449478 21.1407 0.214025 21.002 0.0901342 20.7785C-0.0337564 20.5549 -0.0266783 20.2818 0.108697 20.065L5.37857 11.6275C5.50706 11.4218 5.73243 11.2969 5.97496 11.2969H22.3598C22.9643 11.2969 23.5179 11.6276 23.8044 12.1599C24.0909 12.6923 24.0621 13.3365 23.7292 13.841L19.1039 20.8257C18.9736 21.0225 18.7534 21.1407 18.5175 21.1407Z" fill="#123295"/>
</g>
<defs>
<clipPath id="clip0_60_1287">
<rect width="24" height="24" fill="white"/>
</clipPath>
</defs>
</svg>
