<svg width="24" height="24" viewBox="0 0 24 24" fill="none" xmlns="http://www.w3.org/2000/svg">
<g clip-path="url(#clip0_60_1272)">
<path d="M11.4746 4.94193C12.6492 5.36383 14.1923 5.59616 15.8198 5.59616C17.4472 5.59616 18.9904 5.36383 20.165 4.94193C21.9633 4.296 22.3407 3.41959 22.3407 2.79808C22.3407 2.17658 21.9633 1.30016 20.165 0.654229C18.9904 0.232336 17.4473 0 15.8198 0C14.1923 0 12.6492 0.232336 11.4746 0.654229C9.67628 1.30016 9.29883 2.17658 9.29883 2.79808C9.29883 3.41959 9.67628 4.296 11.4746 4.94193Z" fill="#123295"/>
<path d="M15.8202 7.0187C14.3732 7.0187 12.9744 6.84678 11.791 6.5288L17.2557 9.39252C17.5834 9.56424 17.8622 9.82043 18.0621 10.1334C18.2799 10.4746 18.3992 10.878 18.3992 11.2828V19.1362C19.0462 19.0274 19.6447 18.8773 20.1686 18.6891C21.9641 18.0442 22.3411 17.1667 22.3411 16.5441V5.40283C21.9124 5.72357 21.3591 6.02467 20.6462 6.28072C19.3213 6.75663 17.6073 7.0187 15.8202 7.0187Z" fill="#123295"/>
<path d="M9.64739 7.01194C9.44057 6.90357 9.19381 6.90357 8.98694 7.01194C8.98694 7.01194 3.69814 9.78346 2.34961 10.4901L9.3175 14.1218L16.2923 10.4941L9.64739 7.01194Z" fill="#123295"/>
<path d="M10.0293 24.0001L16.5967 20.5482C16.8306 20.4253 16.9771 20.1828 16.9771 19.9185C16.9771 19.9185 16.9771 13.5285 16.9771 11.7422L10.0293 15.3559V24.0001Z" fill="#123295"/>
<path d="M1.6582 19.9187C1.6582 20.1829 1.8047 20.4254 2.0386 20.5483L8.60598 24.0002V15.3556L1.6582 11.7344V19.9187Z" fill="#123295"/>
</g>
<defs>
<clipPath id="clip0_60_1272">
<rect width="24" height="24" fill="white"/>
</clipPath>
</defs>
</svg>
