<svg width="48" height="48" viewBox="0 0 48 48" fill="none" xmlns="http://www.w3.org/2000/svg">
<g clip-path="url(#clip0_60_1129)">
<path d="M22.9492 9.88387C25.2984 10.7277 28.3847 11.1923 31.6396 11.1923C34.8944 11.1923 37.9808 10.7277 40.3299 9.88387C43.9266 8.59201 44.6815 6.83918 44.6815 5.59616C44.6815 4.35315 43.9266 2.60032 40.3299 1.30846C37.9809 0.464671 34.8945 0 31.6396 0C28.3846 0 25.2984 0.464671 22.9492 1.30846C19.3526 2.60032 18.5977 4.35315 18.5977 5.59616C18.5977 6.83918 19.3526 8.59201 22.9492 9.88387Z" fill="#123295"/>
<path d="M31.6403 14.0378C28.7464 14.0378 25.9487 13.694 23.582 13.058L34.5114 18.7855C35.1668 19.1289 35.7245 19.6413 36.1243 20.2673C36.5597 20.9496 36.7985 21.7564 36.7985 22.5661V38.2728C38.0924 38.0552 39.2894 37.755 40.3371 37.3787C43.9283 36.0888 44.6821 34.3338 44.6821 33.0887V10.8061C43.8248 11.4476 42.7183 12.0498 41.2925 12.5619C38.6426 13.5137 35.2147 14.0378 31.6403 14.0378Z" fill="#123295"/>
<path d="M19.2948 14.0241C18.8811 13.8073 18.3876 13.8073 17.9739 14.0241C17.9739 14.0241 7.39629 19.5671 4.69922 20.9805L18.635 28.2438L32.5845 20.9883L19.2948 14.0241Z" fill="#123295"/>
<path d="M20.0566 48L33.1914 41.0962C33.6593 40.8504 33.9522 40.3654 33.9522 39.8369C33.9522 39.8369 33.9522 27.057 33.9522 23.4843L20.0566 30.7116V48Z" fill="#123295"/>
<path d="M3.31641 39.8369C3.31641 40.3654 3.6094 40.8504 4.0772 41.0962L17.212 48V30.7107L3.31641 23.4683V39.8369Z" fill="#123295"/>
</g>
<defs>
<clipPath id="clip0_60_1129">
<rect width="48" height="48" fill="white"/>
</clipPath>
</defs>
</svg>
