<svg width="48" height="48" viewBox="0 0 48 48" fill="none" xmlns="http://www.w3.org/2000/svg">
<g clip-path="url(#clip0_60_1139)">
<path d="M34.8739 20.9992C30.3253 20.9992 26.6242 24.7003 26.6242 29.2489C26.6242 33.7975 30.3253 37.4986 34.8739 37.4986C39.4225 37.4986 43.1236 33.7975 43.1236 29.2489C43.1236 24.7003 39.4225 20.9992 34.8739 20.9992ZM38.3716 27.9252C35.9734 31.5229 36.6535 30.503 35.3717 32.425C34.9113 33.1156 33.9792 33.2988 33.2914 32.8403L31.0415 31.3404C30.3525 30.881 30.1669 29.9501 30.6262 29.2602C31.0856 28.5711 32.0165 28.3855 32.7065 28.8449L33.7077 29.5123C36.0999 25.9246 35.9713 26.0238 36.3738 25.7944C37.74 25.0041 39.2495 26.6066 38.3716 27.9252ZM28.1241 38.243V46.4983C28.1241 47.6475 29.3689 48.3718 30.3684 47.8004L34.8739 45.2261L39.3793 47.8004C40.3748 48.371 41.6236 47.6507 41.6236 46.4983V38.243C37.6274 41.2496 32.1261 41.2539 28.1241 38.243ZM37.8738 18.4062V3.25769C37.8738 1.46151 36.4123 0 34.6161 0H8.13269C6.33651 0 4.875 1.46151 4.875 3.25769V37.9908C4.875 39.787 6.33651 41.2485 8.13269 41.2485H25.1243C25.1243 34.7937 25.1142 35.1933 25.1477 34.8962C20.1264 26.2877 28.122 15.698 37.8738 18.4062ZM13.8747 7.49972H26.6242C27.4529 7.49972 28.1241 8.17095 28.1241 8.99967C28.1241 9.82838 27.4529 10.4996 26.6242 10.4996H13.8747C13.0459 10.4996 12.3747 9.82838 12.3747 8.99967C12.3747 8.17095 13.0459 7.49972 13.8747 7.49972ZM21.3744 22.4992H13.8747C13.0459 22.4992 12.3747 21.8279 12.3747 20.9992C12.3747 20.1705 13.0459 19.4993 13.8747 19.4993H21.3744C22.2031 19.4993 22.8743 20.1705 22.8743 20.9992C22.8743 21.8279 22.2031 22.4992 21.3744 22.4992ZM13.8747 16.4994C13.0459 16.4994 12.3747 15.8282 12.3747 14.9994C12.3747 14.1707 13.0459 13.4995 13.8747 13.4995H26.6242C27.4529 13.4995 28.1241 14.1707 28.1241 14.9994C28.1241 15.8282 27.4529 16.4994 26.6242 16.4994H13.8747Z" fill="#123295"/>
</g>
<defs>
<clipPath id="clip0_60_1139">
<rect width="48" height="48" fill="white"/>
</clipPath>
</defs>
</svg>
