<svg width="40" height="40" viewBox="0 0 40 40" fill="none" xmlns="http://www.w3.org/2000/svg">
<path d="M22.2003 23.6098L20.2078 24.6498C18.1602 25.7423 15.5677 25.2223 14.0552 23.4097L13.0752 22.2347C12.2452 21.2347 12.3127 19.7872 13.2327 18.8697L19.3378 12.7647L18.1352 12.0572C17.9427 11.9447 17.7227 11.8847 17.5002 11.8847H12.9602L13.6177 10.5696C13.9277 9.95214 13.6752 9.20214 13.0577 8.89214L9.30767 7.01712C8.69267 6.70962 7.94266 6.95962 7.63266 7.57713L0.132599 22.5772C-0.177403 23.1947 0.0750988 23.9448 0.692604 24.2548L4.44263 26.1298C4.62014 26.2198 4.81014 26.2598 5.00014 26.2598C5.46014 26.2598 5.90015 26.0048 6.12015 25.5698L6.54515 24.7223L16.2377 31.8898C17.3452 32.7073 18.6652 33.1148 19.9828 33.1148C21.3228 33.1148 22.6578 32.6923 23.7653 31.8498L28.1153 28.5098L22.2003 23.6098Z" fill="#9FB1E8"/>
<path d="M39.8677 22.5772L32.3676 7.57709C32.0576 6.95708 31.3101 6.70958 30.6901 7.01708L26.9401 8.8921C26.3226 9.2021 26.0726 9.95211 26.3801 10.5696L27.0401 11.8846H23.7526L15 20.6347L15.9775 21.8097C16.7325 22.7147 18.02 22.9797 19.0425 22.4372L22.5201 20.6247L30.1576 26.9522L33.3476 24.4922L33.8851 25.5672C34.1051 26.0047 34.5476 26.2572 35.0027 26.2572C35.1902 26.2572 35.3802 26.2147 35.5627 26.1247L39.3127 24.2497C39.9277 23.9447 40.1752 23.1947 39.8677 22.5772Z" fill="#9FB1E8"/>
</svg>
