<svg width="41" height="40" viewBox="0 0 41 40" fill="none" xmlns="http://www.w3.org/2000/svg">
<g clip-path="url(#clip0_59_575)">
<path d="M16.5356 11.1085L20.198 15.6808L23.8603 11.1085H23.1547C22.4521 11.1085 21.8826 10.5434 21.8826 9.84632V0H18.5132V9.84632C18.5132 10.5434 17.9437 11.1085 17.2411 11.1085H16.5356Z" fill="#9FB1E8"/>
<path d="M29.3562 31.2188L38.209 36.207L39.8778 33.386L31.0566 28.4155C30.448 28.0727 30.2336 27.278 30.5877 26.6791L30.9294 26.1014L25.0288 26.9124L27.2595 32.305L27.6307 31.6773C28.2538 30.7692 29.1579 31.107 29.3562 31.2188Z" fill="#9FB1E8"/>
<path d="M0.517578 33.386L2.18642 36.207L11.0392 31.2188C11.644 30.8777 12.4124 31.0823 12.7646 31.6775L13.1358 32.3051L15.3665 26.9125L9.46591 26.1016L9.80763 26.6793C10.1627 27.2795 9.94539 28.0739 9.33867 28.4156L0.517578 33.386Z" fill="#9FB1E8"/>
<path d="M8.44667 35.5825C11.6853 38.4424 15.8004 40 20.1978 40C24.5952 40 28.7103 38.4424 31.9489 35.5825L29.1904 34.0283L28.1546 35.7793C27.6344 36.6589 26.2708 36.5631 25.8806 35.6196L22.0524 26.3648C21.7421 25.6151 22.2431 24.7471 23.0546 24.6354L33.181 23.2437C34.211 23.1025 34.9775 24.2455 34.4527 25.1328L33.4352 26.8529L36.7467 28.7188C37.519 26.724 37.9097 24.6213 37.9097 22.4502C37.9097 14.2467 32.3232 7.29758 24.4268 5.40203V8.58442H26.4961C27.5375 8.58442 28.1384 9.82502 27.492 10.6318L21.1938 18.4947C20.6925 19.1205 19.7033 19.1205 19.2019 18.4947L12.9036 10.6318C12.2578 9.82553 12.8575 8.58442 13.8995 8.58442H15.9689V5.40186C8.07232 7.2975 2.48584 14.2466 2.48584 22.4501C2.48584 24.6213 2.87651 26.724 3.64887 28.7187L6.96039 26.8528L5.94281 25.1327C5.41861 24.2464 6.18372 23.1019 7.21459 23.2437L17.341 24.6354C18.1524 24.747 18.6535 25.615 18.3432 26.3648L14.515 35.6195C14.1251 36.5621 12.7615 36.6591 12.241 35.7792L11.2052 34.0282L8.44667 35.5825Z" fill="#9FB1E8"/>
</g>
<defs>
<clipPath id="clip0_59_575">
<rect width="40.396" height="40" fill="white"/>
</clipPath>
</defs>
</svg>
