<svg width="40" height="40" viewBox="0 0 40 40" fill="none" xmlns="http://www.w3.org/2000/svg">
<path d="M7.03125 30.625C9.62008 30.625 11.7188 28.5263 11.7188 25.9375C11.7188 23.3487 9.62008 21.25 7.03125 21.25C4.44242 21.25 2.34375 23.3487 2.34375 25.9375C2.34375 28.5263 4.44242 30.625 7.03125 30.625Z" fill="#9FB1E8"/>
<path d="M10.5469 30.625H3.51562C1.57703 30.625 0 32.202 0 34.1406V40H14.0625V34.1406C14.0625 32.202 12.4855 30.625 10.5469 30.625Z" fill="#9FB1E8"/>
<path d="M32.9688 30.625C35.5576 30.625 37.6562 28.5263 37.6562 25.9375C37.6562 23.3487 35.5576 21.25 32.9688 21.25C30.3799 21.25 28.2812 23.3487 28.2812 25.9375C28.2812 28.5263 30.3799 30.625 32.9688 30.625Z" fill="#9FB1E8"/>
<path d="M36.4844 30.625H29.4531C27.5145 30.625 25.9375 32.202 25.9375 34.1406V40H40V34.1406C40 32.202 38.423 30.625 36.4844 30.625Z" fill="#9FB1E8"/>
<path d="M20 9.375C22.5888 9.375 24.6875 7.27633 24.6875 4.6875C24.6875 2.09867 22.5888 0 20 0C17.4112 0 15.3125 2.09867 15.3125 4.6875C15.3125 7.27633 17.4112 9.375 20 9.375Z" fill="#9FB1E8"/>
<path d="M27.0312 12.8906C27.0312 10.952 25.4542 9.375 23.5156 9.375H16.4844C14.5458 9.375 12.9688 10.952 12.9688 12.8906V18.9062H27.0312V12.8906Z" fill="#9FB1E8"/>
<path d="M21.1717 21.25H18.828V27.019L15.6294 28.8649L16.8013 30.8951L19.9999 29.048L23.1985 30.8951L24.3703 28.8649L21.1717 27.019V21.25Z" fill="#9FB1E8"/>
</svg>
