<svg width="40" height="40" viewBox="0 0 40 40" fill="none" xmlns="http://www.w3.org/2000/svg">
<g clip-path="url(#clip0_59_608)">
<path d="M29.0621 17.4993C25.2716 17.4993 22.1873 20.5836 22.1873 24.3741C22.1873 28.1646 25.2716 31.2488 29.0621 31.2488C32.8525 31.2488 35.9368 28.1646 35.9368 24.3741C35.9368 20.5836 32.8525 17.4993 29.0621 17.4993ZM31.9768 23.271C29.9784 26.2691 30.5451 25.4191 29.4769 27.0209C29.0932 27.5963 28.3165 27.749 27.7434 27.367L25.8684 26.117C25.2942 25.7342 25.1396 24.9584 25.5224 24.3835C25.9051 23.8093 26.6809 23.6546 27.2559 24.0374L28.0902 24.5936C30.0837 21.6038 29.9766 21.6865 30.312 21.4953C31.4505 20.8367 32.7084 22.1721 31.9768 23.271ZM23.4373 31.8691V38.7486C23.4373 39.7063 24.4746 40.3098 25.3075 39.8337L29.0621 37.6884L32.8166 39.8337C33.6462 40.3091 34.6869 39.7089 34.6869 38.7486V31.8691C31.3567 34.3747 26.7722 34.3783 23.4373 31.8691ZM31.562 15.3385V2.71474C31.562 1.21792 30.344 0 28.8472 0H6.77773C5.28091 0 4.06299 1.21792 4.06299 2.71474V31.659C4.06299 33.1558 5.28091 34.3737 6.77773 34.3737H20.9374C20.9374 28.9948 20.929 29.3277 20.9569 29.0802C16.7725 21.9065 23.4355 13.0817 31.562 15.3385ZM11.5627 6.24977H22.1873C22.8779 6.24977 23.4373 6.80912 23.4373 7.49972C23.4373 8.19032 22.8779 8.74967 22.1873 8.74967H11.5627C10.8721 8.74967 10.3128 8.19032 10.3128 7.49972C10.3128 6.80912 10.8721 6.24977 11.5627 6.24977ZM17.8125 18.7493H11.5627C10.8721 18.7493 10.3128 18.1899 10.3128 17.4993C10.3128 16.8088 10.8721 16.2494 11.5627 16.2494H17.8125C18.5031 16.2494 19.0624 16.8088 19.0624 17.4993C19.0624 18.1899 18.5031 18.7493 17.8125 18.7493ZM11.5627 13.7495C10.8721 13.7495 10.3128 13.1901 10.3128 12.4995C10.3128 11.8089 10.8721 11.2496 11.5627 11.2496H22.1873C22.8779 11.2496 23.4373 11.8089 23.4373 12.4995C23.4373 13.1901 22.8779 13.7495 22.1873 13.7495H11.5627Z" fill="#9FB1E8"/>
</g>
<defs>
<clipPath id="clip0_59_608">
<rect width="40" height="40" fill="white"/>
</clipPath>
</defs>
</svg>
