<svg width="40" height="40" viewBox="0 0 40 40" fill="none" xmlns="http://www.w3.org/2000/svg">
<path d="M12.0779 13.2266C12.8279 14.0235 13.9529 14.1172 14.8904 13.6015C15.9901 12.612 18.1254 11.7969 19.9997 11.7969C21.3826 11.7969 22.6951 12.1484 23.8435 12.7577C23.8435 12.4495 24.2516 11.2713 25.1326 10.3905C25.6951 9.85156 26.3747 9.45312 27.1247 9.24211C26.0743 8.55391 24.909 8.01602 23.6698 7.64922C24.2974 6.85188 24.6872 5.78086 24.6872 4.6875C24.6872 2.09859 22.5886 0 19.9997 0C17.4109 0 15.3122 2.09859 15.3122 4.6875C15.3122 5.78172 15.7026 6.85344 16.3311 7.65109C14.728 8.13875 13.4277 8.76289 12.1715 9.85148C11.1222 10.8097 11.21 12.3587 12.0779 13.2266Z" fill="#9FB1E8"/>
<path d="M7.65109 23.6688C8.22187 25.5448 8.93195 26.7673 9.85148 27.8281C10.8138 28.8821 12.3636 28.7847 13.2265 27.922C14.0234 27.172 14.1171 26.0469 13.6016 25.1095C12.5137 23.9006 11.7969 21.7016 11.7969 20.0469C11.8795 19.4021 11.7308 18.0761 12.7577 16.1798C12.1403 15.9735 11.3757 15.8525 10.3907 14.8673C9.85156 14.3048 9.45312 13.625 9.24211 12.875C8.55391 13.9254 8.01617 15.0907 7.64937 16.33C6.85203 15.7024 5.85914 15.3126 4.76562 15.3126C2.1768 15.3126 0 17.4112 0 20.0001C0 22.5889 2.1768 24.6876 4.76562 24.6876C5.85984 24.6876 6.85344 24.2972 7.65109 23.6688Z" fill="#9FB1E8"/>
<path d="M23.6687 32.3489C25.6702 31.7399 26.8719 30.977 27.8282 30.1484C28.8801 29.1881 28.787 27.6384 27.9219 26.7735C27.1484 25.9766 26 25.8829 25.0624 26.4219C23.732 27.2591 22.5981 28.2031 20.0469 28.2031C18.653 28.2031 17.3511 27.8761 16.1562 27.2421C16.1562 27.5502 15.748 28.7284 14.8671 29.6093C14.3046 30.1483 13.625 30.5469 12.875 30.7577C13.9254 31.4459 15.0909 31.9838 16.33 32.3506C15.7023 33.148 15.3125 34.1409 15.3125 35.2344C15.3125 37.8232 17.4112 40 20 40C22.5888 40 24.6875 37.8232 24.6875 35.2344C24.6875 34.1402 24.2971 33.1466 23.6687 32.3489Z" fill="#9FB1E8"/>
<path d="M35.2345 15.3125C34.1403 15.3125 33.1467 15.7029 32.349 16.3313C31.887 14.8124 31.1921 13.3762 30.1486 12.1718C29.1878 11.1195 27.6385 11.2132 26.7736 12.0781C25.9767 12.8281 25.883 13.9531 26.3985 14.8906C27.4874 16.0998 28.2032 18.313 28.2032 19.953V20C28.2032 21.3827 27.8516 22.6719 27.2189 23.8203C28.1096 24.0077 28.9533 24.453 29.6095 25.1328C30.1486 25.6953 30.547 26.3749 30.7581 27.1249C31.4463 26.0745 31.984 24.9091 32.3508 23.6699C33.1481 24.2976 34.141 24.6875 35.2345 24.6875C37.8233 24.6875 40.0001 22.5888 40.0001 20C40.0001 17.4111 37.8233 15.3125 35.2345 15.3125Z" fill="#9FB1E8"/>
</svg>
