<svg width="48" height="48" viewBox="0 0 48 48" fill="none" xmlns="http://www.w3.org/2000/svg">
<g clip-path="url(#clip0_300_1872)">
<path d="M2.8125 18.375C2.8125 16.0488 4.70503 14.1562 7.03125 14.1562H31.4062C33.7325 14.1562 35.625 16.0488 35.625 18.375V19.7812H38.4375V15.0937C38.4375 13.026 36.7552 11.3437 34.6875 11.3437H17.8125V9.46875C17.8125 7.401 16.1302 5.71875 14.0625 5.71875H3.75C1.68225 5.71875 0 7.401 0 9.46875V35.1627L2.8125 30.6597V18.375Z" fill="#123295"/>
<path d="M31.4062 16.9688H7.03125C6.25462 16.9688 5.625 17.5984 5.625 18.375V26.1566L8.36784 21.7651C9.14391 20.5228 10.4815 19.7813 11.946 19.7813H32.8125V18.375C32.8125 17.5984 32.1829 16.9688 31.4062 16.9688Z" fill="#123295"/>
<path d="M37.0351 42.2812H1.41008C0.898956 42.2812 0.42805 42.0039 0.180268 41.5568C-0.0675129 41.1097 -0.0533567 40.5634 0.217393 40.1299L10.7571 23.2549C11.0141 22.8436 11.4649 22.5936 11.9499 22.5936H44.7196C45.9287 22.5936 47.0358 23.255 47.6088 24.3197C48.1819 25.3844 48.1242 26.6728 47.4584 27.6819L38.2077 41.6513C37.9472 42.0448 37.5067 42.2812 37.0351 42.2812Z" fill="#123295"/>
</g>
<defs>
<clipPath id="clip0_300_1872">
<rect width="48" height="48" fill="white"/>
</clipPath>
</defs>
</svg>
