<svg width="48" height="49" viewBox="0 0 48 49" fill="none" xmlns="http://www.w3.org/2000/svg">
<g clip-path="url(#clip0_300_1877)">
<path d="M2.8125 18.5321C2.8125 16.2059 4.70503 14.3134 7.03125 14.3134H31.4062C33.7325 14.3134 35.625 16.2059 35.625 18.5321V19.9384H38.4375V15.2509C38.4375 13.1831 36.7552 11.5009 34.6875 11.5009H17.8125V9.62585C17.8125 7.5581 16.1302 5.87585 14.0625 5.87585H3.75C1.68225 5.87585 0 7.5581 0 9.62585V35.3198L2.8125 30.8168V18.5321Z" fill="#123295"/>
<path d="M31.4062 17.1259H7.03125C6.25462 17.1259 5.625 17.7555 5.625 18.5321V26.3137L8.36784 21.9222C9.14391 20.6799 10.4815 19.9384 11.946 19.9384H32.8125V18.5321C32.8125 17.7555 32.1829 17.1259 31.4062 17.1259Z" fill="#123295"/>
<path d="M37.0351 42.4383H1.41008C0.898956 42.4383 0.42805 42.161 0.180268 41.7139C-0.0675129 41.2668 -0.0533567 40.7205 0.217393 40.287L10.7571 23.412C11.0141 23.0007 11.4649 22.7507 11.9499 22.7507H44.7196C45.9287 22.7507 47.0358 23.4121 47.6088 24.4768C48.1819 25.5415 48.1242 26.8299 47.4584 27.839L38.2077 41.8084C37.9472 42.2019 37.5067 42.4383 37.0351 42.4383Z" fill="#123295"/>
</g>
<defs>
<clipPath id="clip0_300_1877">
<rect width="48" height="48" fill="white" transform="translate(0 0.157104)"/>
</clipPath>
</defs>
</svg>
