<svg width="48" height="48" viewBox="0 0 48 48" fill="none" xmlns="http://www.w3.org/2000/svg">
<g clip-path="url(#clip0_300_1862)">
<path d="M45.9855 14.1412L41.0851 11.2092L39.981 6.63892C39.4908 4.61195 37.6135 3.26064 35.5549 3.42264L29.9477 3.85661L26.7356 1.01261C25.1536 -0.337301 22.852 -0.337301 21.2645 1.0112L18.0523 3.85651L12.4451 3.42254C10.4099 3.27976 8.50793 4.61317 8.06984 6.47261C7.97918 6.75442 6.34165 11.8446 6.44796 11.5139L2.01528 14.1397C0.23965 15.2301 -0.471725 17.419 0.323369 19.3445L2.23634 23.9807L0.324775 28.6156C-0.471725 30.5424 0.240963 32.73 2.01528 33.819L6.91071 36.7304L8.01893 41.3214C8.50643 43.3469 10.3755 44.6914 12.4451 44.5376L17.9918 44.1092L21.2643 46.9866C22.0568 47.6621 23.0277 48 24 48C24.9709 48 25.9433 47.6621 26.7356 46.9865L30.0082 44.1091L35.5549 44.5375C37.6506 44.7037 39.4935 43.3482 39.981 41.3213L41.0851 36.7509L45.9855 33.819C47.7584 32.73 48.4698 30.5424 47.676 28.6156L45.7631 23.9808L47.6774 19.3432C48.4712 17.4192 47.7598 15.2302 45.9855 14.1412ZM24 39.4688C15.4706 39.4688 8.53127 32.5295 8.53127 24C8.53127 15.4705 15.4706 8.53126 24 8.53126C32.5295 8.53126 39.4688 15.4705 39.4688 24C39.4688 32.5295 32.5295 39.4688 24 39.4688Z" fill="#123295"/>
<path d="M24 11.3438C17.021 11.3438 11.3438 17.021 11.3438 24C11.3438 30.979 17.021 36.6562 24 36.6562C30.979 36.6562 36.6563 30.979 36.6563 24C36.6563 17.021 30.979 11.3438 24 11.3438ZM32.0255 20.7755L23.588 29.213C23.3133 29.4877 22.9535 29.625 22.5938 29.625C22.234 29.625 21.8741 29.4877 21.5995 29.213L15.9745 23.588C15.4253 23.0387 15.4253 22.1487 15.9745 21.5994C16.5238 21.0502 17.4138 21.0502 17.9631 21.5994L22.5938 26.2302L30.037 18.7869C30.5863 18.2377 31.4763 18.2377 32.0256 18.7869C32.5748 19.3362 32.5748 20.2262 32.0255 20.7755Z" fill="#123295"/>
</g>
<defs>
<clipPath id="clip0_300_1862">
<rect width="48" height="48" fill="white"/>
</clipPath>
</defs>
</svg>
