<svg width="48" height="48" viewBox="0 0 48 48" fill="none" xmlns="http://www.w3.org/2000/svg">
<path d="M46.2857 34.2857H42.8571V27.4285C42.8571 26.4817 42.0896 25.7142 41.1428 25.7142H25.7143V13.7142H34.2857C35.2325 13.7142 36 12.9467 36 11.9999V1.71422C36 0.767511 35.2325 0 34.2857 0H13.7142C12.7674 0 11.9999 0.767511 11.9999 1.71432V12C11.9999 12.9468 12.7674 13.7143 13.7142 13.7143H22.2856V25.7143H6.85707C5.91026 25.7143 5.14275 26.4818 5.14275 27.4286V34.2858H1.71432C0.767511 34.2857 0 35.0532 0 36V46.2857C0 47.2325 0.767511 48 1.71432 48H12C12.9468 48 13.7143 47.2325 13.7143 46.2857V36C13.7143 35.0532 12.9468 34.2857 12 34.2857H8.57139V29.1428H22.2856V34.2857H18.8571C17.9103 34.2857 17.1428 35.0532 17.1428 36V46.2857C17.1428 47.2325 17.9103 48 18.8571 48H29.1428C30.0896 48 30.8571 47.2325 30.8571 46.2857V36C30.8571 35.0532 30.0896 34.2857 29.1428 34.2857H25.7143V29.1428H39.4285V34.2857H36C35.0532 34.2857 34.2857 35.0532 34.2857 36V46.2857C34.2857 47.2325 35.0532 48 36 48H46.2857C47.2325 48 48 47.2325 48 46.2857V36C48 35.0532 47.2325 34.2857 46.2857 34.2857Z" fill="#123295"/>
</svg>
