<svg width="56" height="56" viewBox="0 0 56 56" fill="none" xmlns="http://www.w3.org/2000/svg">
<path d="M49 56H11.375C11.1429 56 10.9204 55.9078 10.7563 55.7437C10.5922 55.5796 10.5 55.3571 10.5 55.125V0.875C10.5 0.642936 10.5922 0.420376 10.7563 0.256282C10.9204 0.0921872 11.1429 0 11.375 0L39.9542 0C40.1863 4.95577e-05 40.4088 0.0922693 40.5729 0.256375L49.6186 9.30212C49.7827 9.46618 49.875 9.6887 49.875 9.92075V55.125C49.875 55.3571 49.7828 55.5796 49.6187 55.7437C49.4546 55.9078 49.2321 56 49 56Z" fill="url(#paint0_linear_300_3660)"/>
<path d="M6.125 28.8277L9.625 27.2816L12.068 31.031H6.125V28.8277Z" fill="url(#paint1_linear_300_3660)"/>
<path d="M48.125 56H10.5C10.2679 56 10.0454 55.9078 9.88128 55.7437C9.71719 55.5796 9.625 55.3571 9.625 55.125V0.875C9.625 0.642936 9.71719 0.420376 9.88128 0.256282C10.0454 0.0921872 10.2679 0 10.5 0L39.4415 0L49 9.5585V55.125C49 55.3571 48.9078 55.5796 48.7437 55.7437C48.5796 55.9078 48.3571 56 48.125 56Z" fill="#57D57A"/>
<path d="M39.4414 0V8.6835C39.4414 8.91556 39.5336 9.13812 39.6977 9.30222C39.8618 9.46631 40.0843 9.5585 40.3164 9.5585H48.9999L44.7124 4.396L39.4414 0Z" fill="url(#paint2_linear_300_3660)"/>
<path d="M40.2693 45.9377H7.67375C7.47033 45.9378 7.26889 45.8978 7.08093 45.82C6.89298 45.7422 6.7222 45.6282 6.57836 45.4843C6.43452 45.3405 6.32045 45.1697 6.24266 44.9818C6.16487 44.7938 6.12489 44.5924 6.125 44.3889V30.3749H40.2693C40.6799 30.3752 41.0737 30.5384 41.3641 30.8288C41.6545 31.1192 41.8178 31.513 41.818 31.9237V44.3889C41.818 44.7997 41.6548 45.1936 41.3644 45.4841C41.0739 45.7745 40.68 45.9377 40.2693 45.9377Z" fill="url(#paint3_linear_300_3660)"/>
<path d="M9.625 27.2816H7.672C7.46889 27.2815 7.26774 27.3214 7.08006 27.3991C6.89237 27.4767 6.72182 27.5906 6.57816 27.7342C6.4345 27.8777 6.32053 28.0482 6.24278 28.2359C6.16502 28.4235 6.125 28.6246 6.125 28.8277C6.12489 29.0309 6.16482 29.2321 6.24252 29.4199C6.32023 29.6076 6.43417 29.7782 6.57785 29.9219C6.72153 30.0656 6.89211 30.1795 7.07985 30.2572C7.2676 30.3349 7.46881 30.3749 7.672 30.3747H9.625V27.2816Z" fill="url(#paint4_linear_300_3660)"/>
<path d="M14.7417 38.0757L12.3225 34.4739H14.1288L15.7846 36.936L17.4511 34.4739H19.2036L16.806 38.0434L19.3111 42H17.4941L15.7523 39.1831L13.9998 42H12.215L14.7417 38.0757ZM20.3884 34.4739H22.0011V40.6668H25.4416V42H20.3884V34.4739ZM29.2081 42.129C28.2118 42.129 27.4591 41.9247 26.9502 41.5162C26.4413 41.1076 26.1725 40.57 26.1439 39.9034H27.7566C27.7853 40.0468 27.8283 40.1722 27.8856 40.2797C27.943 40.3873 28.029 40.4769 28.1437 40.5485C28.2583 40.6202 28.4017 40.6775 28.5737 40.7206C28.7458 40.7564 28.9572 40.7743 29.2081 40.7743C29.7242 40.7743 30.0933 40.7062 30.3155 40.57C30.5449 40.4267 30.6595 40.226 30.6595 39.9679C30.6595 39.6526 30.509 39.416 30.208 39.2583C29.9141 39.0935 29.441 38.9465 28.7888 38.8175C28.4017 38.7458 28.0576 38.6527 27.7566 38.538C27.4556 38.4161 27.2011 38.2656 26.9932 38.0864C26.7854 37.9 26.6277 37.6778 26.5202 37.4198C26.4126 37.1618 26.3589 36.8536 26.3589 36.4952C26.3589 36.1726 26.4234 35.8787 26.5524 35.6135C26.6886 35.3483 26.8786 35.1225 27.1223 34.9362C27.3731 34.7426 27.6742 34.5957 28.0254 34.4954C28.3766 34.395 28.7708 34.3448 29.2081 34.3448C29.6811 34.3448 30.0897 34.395 30.4338 34.4954C30.7778 34.5957 31.0645 34.7391 31.2939 34.9254C31.5304 35.1118 31.7096 35.334 31.8315 35.592C31.9533 35.8501 32.0286 36.1404 32.0573 36.4629H30.4445C30.3943 36.2049 30.2797 36.0149 30.1005 35.8931C29.9213 35.7641 29.6238 35.6995 29.2081 35.6995C28.7852 35.6995 28.4734 35.7676 28.2727 35.9038C28.072 36.04 27.9716 36.2228 27.9716 36.4522C27.9716 36.7245 28.1078 36.9431 28.3802 37.108C28.6597 37.2657 29.097 37.4019 29.6919 37.5166C30.1005 37.5954 30.4624 37.6922 30.7778 37.8069C31.1004 37.9215 31.3692 38.0685 31.5842 38.2477C31.8064 38.4269 31.9748 38.6491 32.0895 38.9143C32.2114 39.1723 32.2723 39.4841 32.2723 39.8497C32.2723 40.5449 32.0035 41.1004 31.4659 41.5162C30.9355 41.9247 30.1829 42.129 29.2081 42.129Z" fill="white"/>
<defs>
<linearGradient id="paint0_linear_300_3660" x1="30.1875" y1="-27.9886" x2="30.1875" y2="-25.7434" gradientUnits="userSpaceOnUse">
<stop stop-color="#F3F7FF"/>
<stop offset="0.99" stop-color="#B5D1FF"/>
</linearGradient>
<linearGradient id="paint1_linear_300_3660" x1="168.939" y1="149.204" x2="168.939" y2="345.798" gradientUnits="userSpaceOnUse">
<stop stop-color="#52FF82"/>
<stop offset="1" stop-color="#D50000"/>
<stop offset="1" stop-color="#00BB6C"/>
</linearGradient>
<linearGradient id="paint2_linear_300_3660" x1="522.509" y1="-223.946" x2="522.509" y2="-38.2245" gradientUnits="userSpaceOnUse">
<stop stop-color="#F3F7FF"/>
<stop offset="0.99" stop-color="#B5D1FF"/>
</linearGradient>
<linearGradient id="paint3_linear_300_3660" x1="983.971" y1="536.445" x2="983.971" y2="1352.46" gradientUnits="userSpaceOnUse">
<stop stop-color="#52FF82"/>
<stop offset="1" stop-color="#D50000"/>
<stop offset="1" stop-color="#00BB6C"/>
</linearGradient>
<linearGradient id="paint4_linear_300_3660" x1="102.011" y1="127.864" x2="102.011" y2="290.049" gradientUnits="userSpaceOnUse">
<stop stop-color="#52FF82"/>
<stop offset="1" stop-color="#D50000"/>
<stop offset="1" stop-color="#00BB6C"/>
</linearGradient>
</defs>
</svg>
