<?xml version="1.0" encoding="utf-8"?><svg xmlns="http://www.w3.org/2000/svg" xmlns:xlink="http://www.w3.org/1999/xlink"><symbol viewBox="0 0 47 18" id="arrow-l" xmlns="http://www.w3.org/2000/svg"><path d="M9 1L1 9m0 0l8 8M1 9h45.227"/></symbol><symbol viewBox="0 0 22 24" id="basket" xmlns="http://www.w3.org/2000/svg"><g clip-path="url(#ba)"><path d="M10.363 18.443a2.046 2.046 0 00-2.045 2.042 2.046 2.046 0 004.09 0 2.046 2.046 0 00-2.045-2.042zm6.134 0a2.046 2.046 0 00-2.045 2.042 2.046 2.046 0 004.089 0 2.046 2.046 0 00-2.044-2.042zm3.978-8.199L7.413 6.891a.614.614 0 00-.75.73L8.67 16.4h-.786L5.482 5.895a.613.613 0 00-.474-.464l-4.27-.882A.614.614 0 00.489 5.75l3.885.802L6.797 17.15a.613.613 0 00.598.477h12.07a.615.615 0 00.607-.53l.858-6.175a.613.613 0 00-.455-.678zm-8.14 3.91a.613.613 0 01-1.227 0v-2.696a.613.613 0 011.227 0v2.696zm2.625 0a.613.613 0 01-1.227 0v-1.88a.613.613 0 011.227 0v1.88zm2.625 0a.613.613 0 01-1.227 0v-1.226a.613.613 0 011.227 0v1.226z"/></g><path fill-rule="evenodd" clip-rule="evenodd" d="M16.268 4.568a2.996 2.996 0 00-1.693-.523c-.627 0-1.21.193-1.693.523-.28-.843-.492-1.752-.492-2.383C12.39.98 13.37 0 14.575 0s2.185.98 2.185 2.185c0 .631-.212 1.54-.492 2.383zm-4.722 2.274l.024.006v-.011l-.024.005zm4.972 1.217c-1.333-.33-2.766-.681-4.129-1.013a2.185 2.185 0 114.129 1.013zm4.436 1.103c-.866-.217-2.155-.538-3.618-.9a2.995 2.995 0 00.243-1.425c.87.18 1.762.45 2.308.765.596.344.969.928 1.067 1.56zM9.869 6.439c-.36-.086-.706-.167-1.03-.243a2.19 2.19 0 01-.376-2.667 2.188 2.188 0 013.147-.7c.098.738.338 1.599.61 2.353a3.01 3.01 0 00-.449.774c-.628.113-1.305.278-1.902.483zm10.124.075a3.43 3.43 0 01-.217.114c-.696-.295-1.587-.526-2.397-.672a3.01 3.01 0 00-.449-.774c.262-.727.494-1.553.599-2.273.095-.067.189-.128.278-.18a2.188 2.188 0 012.986.8 2.188 2.188 0 01-.8 2.985z"/><defs><clipPath id="ba"><path transform="translate(0 3.064)" d="M0 0h20.936v20.936H0z"/></clipPath></defs></symbol><symbol viewBox="0 0 16 16" id="call" xmlns="http://www.w3.org/2000/svg"><path d="M14.55 11.08c-.039-.03-2.817-2.033-3.58-1.89-.363.065-.571.314-.989.81-.067.08-.229.273-.354.41a6.394 6.394 0 01-4.034-4.034c.137-.126.33-.287.412-.357.494-.415.743-.623.807-.988.132-.756-1.869-3.553-1.89-3.578A1.068 1.068 0 004.127 1C3.316 1 1 4.004 1 4.51c0 .03.042 3.018 3.728 6.767C8.473 14.957 11.46 15 11.49 15c.506 0 3.51-2.316 3.51-3.127a1.065 1.065 0 00-.45-.793z"/></symbol><symbol viewBox="0 0 13 8" id="chevron-down" xmlns="http://www.w3.org/2000/svg"><path d="M.5.5l6 6 6-6"/></symbol><symbol viewBox="0 0 16 16" id="edit" xmlns="http://www.w3.org/2000/svg"><path d="M9.88 2.688l-8.803 8.804a.35.35 0 00-.091.16L.01 15.57a.348.348 0 00.42.42l3.917-.976a.347.347 0 00.16-.091l8.805-8.804-3.431-3.43zm5.612-1.2l-.98-.98c-.655-.655-1.796-.655-2.45 0l-1.2 1.2 3.43 3.43 1.2-1.2c.327-.327.508-.762.508-1.225 0-.463-.18-.898-.508-1.225z"/></symbol><symbol viewBox="0 0 16 16" id="globe" xmlns="http://www.w3.org/2000/svg"><path d="M8 0C3.554 0 0 3.605 0 8c0 4.438 3.605 8 7.998 8C12.408 16 16 12.427 16 8c0-4.39-3.55-8-8-8zM6.218 8.809l-.59 2.554c-.147.64-1.037.74-1.313.13L2.989 8.55l.885-2.599a.469.469 0 00-.237-.572L1.86 4.507a7.038 7.038 0 012.96-2.815v1.164c0 .221.155.413.372.458l2.4.51a.871.871 0 01.666.634l.227.866a.88.88 0 01-.162.768l-2.015 2.53a.468.468 0 00-.09.187zm1.263 6.235l.269-.568a.451.451 0 01.204-.215c.103-.062.261-.135.52-.265a.488.488 0 01.616.136l.56.736a7.12 7.12 0 01-2.17.176zm5.07-1.644l-.613-.4-.275-2.553a1.042 1.042 0 01.183-.71l1.384-1.97a.468.468 0 00.085-.269V5.69l.898-1.053A7.032 7.032 0 0115.062 8a7.044 7.044 0 01-2.51 5.4z"/></symbol><symbol viewBox="0 0 16 16" id="location" xmlns="http://www.w3.org/2000/svg"><path d="M12.524 4.242a5 5 0 00-3.956-2.713 5.682 5.682 0 00-1.135 0 5.001 5.001 0 00-3.956 2.713 5.403 5.403 0 00.74 5.946l3.397 4.13a.5.5 0 00.773 0l3.396-4.13a5.403 5.403 0 00.74-5.946zM8 8.5a2 2 0 110-4 2 2 0 010 4z"/></symbol><symbol viewBox="0 0 16 16" id="mail" xmlns="http://www.w3.org/2000/svg"><path d="M8 7.247l6.307-3.7a2 2 0 00-1.64-.88H3.334a2 2 0 00-1.653.873L8 7.247z"/><path d="M8.667 8.394a1.33 1.33 0 01-.666.18 1.333 1.333 0 01-.667-.174l-6-3.513v6.447a2 2 0 002 2h9.333a2 2 0 002-2V4.887l-6 3.507z"/></symbol><symbol viewBox="0 0 16 16" id="tell" xmlns="http://www.w3.org/2000/svg"><path d="M14.55 11.08c-.039-.03-2.817-2.033-3.58-1.89-.363.065-.571.314-.989.81-.067.08-.229.273-.354.41a6.394 6.394 0 01-4.034-4.034c.137-.126.33-.287.412-.357.494-.415.743-.623.807-.988.132-.756-1.869-3.553-1.89-3.578A1.068 1.068 0 004.127 1C3.316 1 1 4.004 1 4.51c0 .03.042 3.018 3.728 6.767C8.473 14.957 11.46 15 11.49 15c.506 0 3.51-2.316 3.51-3.127a1.065 1.065 0 00-.45-.793z"/></symbol><symbol viewBox="0 0 15 16" id="user" xmlns="http://www.w3.org/2000/svg"><path d="M13.81 10.329a9.185 9.185 0 00-3.767-1.992 4.333 4.333 0 001.793-3.509A4.34 4.34 0 007.5.492a4.34 4.34 0 00-4.336 4.336c0 1.442.707 2.72 1.793 3.51a9.185 9.185 0 00-3.767 1.991A3.509 3.509 0 000 12.965v2.527h15v-2.527a3.509 3.509 0 00-1.19-2.636zm-9.474-5.5A3.168 3.168 0 017.5 1.663a3.168 3.168 0 013.164 3.164A3.168 3.168 0 017.5 7.992a3.168 3.168 0 01-3.164-3.164zm9.492 9.491H1.172v-1.355c0-.674.288-1.314.791-1.756C3.01 10.29 4.82 9.193 7.5 9.193c2.68 0 4.49 1.097 5.537 2.016.503.442.791 1.082.791 1.756v1.355z"/></symbol></svg>