<svg width="16" height="16" viewBox="0 0 16 16" fill="none" xmlns="http://www.w3.org/2000/svg">
<path d="M9.88087 2.6875L1.07744 11.4916C1.03315 11.536 1.00117 11.5921 0.985939 11.6524L0.0101637 15.5689C-0.0190245 15.6868 0.0156207 15.8122 0.101663 15.8982C0.166765 15.9633 0.255472 15.9994 0.346209 15.9994C0.374002 15.9994 0.402428 15.9959 0.430094 15.989L4.34665 15.0131C4.40769 14.9978 4.46315 14.966 4.50744 14.9217L13.3116 6.11826L9.88087 2.6875Z" fill="#123295"/>
<path d="M15.4923 1.48755L14.5124 0.507583C13.8574 -0.147376 12.7159 -0.146742 12.0617 0.507583L10.8613 1.70798L14.292 5.13861L15.4923 3.93822C15.8195 3.61118 15.9997 3.1759 15.9997 2.71294C15.9997 2.24999 15.8195 1.81471 15.4923 1.48755Z" fill="#123295"/>
</svg>
