<svg width="16" height="16" viewBox="0 0 16 16" fill="none" xmlns="http://www.w3.org/2000/svg">
<path d="M7.99998 0C3.55359 0 0 3.60499 0 7.99997C0 12.4382 3.60506 16.0002 7.99814 16C12.4088 15.9999 16 12.4271 16 7.99997C16 3.61011 12.4493 0 7.99998 0ZM6.21793 8.80893L5.62858 11.363C5.4809 12.0032 4.59099 12.1038 4.31487 11.4923L2.98899 8.55068L3.87434 5.95207C3.9504 5.72891 3.84887 5.48404 3.63724 5.38014L1.85993 4.50745C2.55049 3.29246 3.57724 2.31708 4.8203 1.69165V2.85593C4.8203 3.07733 4.97524 3.26858 5.19186 3.31449L7.59205 3.82327C7.9183 3.89227 8.17351 4.1357 8.25808 4.45845L8.48492 5.32445C8.55445 5.59042 8.4938 5.87748 8.3227 6.09232L6.30799 8.62231C6.26442 8.677 6.23364 8.74078 6.21793 8.80893ZM7.48067 15.0437L7.74964 14.476C7.79967 14.3703 7.85523 14.3204 7.95364 14.2608C8.05748 14.1986 8.21505 14.1263 8.47411 13.9963C8.70583 13.8803 8.95451 13.9538 9.09008 14.1319C9.09011 14.132 9.09017 14.132 9.0902 14.1321L9.65089 14.8683C8.94333 15.0375 8.20917 15.0968 7.48067 15.0437ZM12.5516 13.3999L11.9374 13.0014L11.6619 10.4484C11.6348 10.1972 11.7 9.94468 11.8454 9.73756L13.2288 7.7685C13.2843 7.68959 13.3141 7.59547 13.3141 7.49903V5.69045L14.2119 4.63679C14.77 5.66488 15.0625 6.81566 15.0625 7.99997C15.0625 10.1557 14.0979 12.0935 12.5516 13.3999Z" fill="#123295"/>
</svg>
