<svg width="16" height="16" viewBox="0 0 16 16" fill="none" xmlns="http://www.w3.org/2000/svg">
<path d="M12.5238 4.24178C12.1447 3.49426 11.5837 2.85404 10.8925 2.37999C10.2012 1.90594 9.40193 1.61327 8.56802 1.52888C8.19078 1.49103 7.8107 1.49103 7.43347 1.52888C6.59958 1.61332 5.80028 1.90599 5.10902 2.37998C4.41776 2.85398 3.85671 3.4941 3.47742 4.24153C3.00021 5.1952 2.81589 6.26876 2.94766 7.327C3.07943 8.38523 3.52141 9.3808 4.21792 10.1883L7.61437 14.3177C7.66127 14.3748 7.72024 14.4207 7.78702 14.4523C7.85381 14.4839 7.92675 14.5002 8.00062 14.5002C8.07448 14.5002 8.14743 14.4839 8.21421 14.4523C8.281 14.4207 8.33996 14.3748 8.38687 14.3177L11.7833 10.1883C12.4798 9.38085 12.9218 8.38532 13.0536 7.32712C13.1853 6.26893 13.001 5.19541 12.5238 4.24178ZM8.00062 8.50008C7.60506 8.50008 7.21838 8.38278 6.88948 8.16301C6.56058 7.94325 6.30423 7.6309 6.15286 7.26544C6.00148 6.89999 5.96188 6.49786 6.03905 6.1099C6.11622 5.72193 6.3067 5.36557 6.58641 5.08586C6.86611 4.80616 7.22248 4.61568 7.61044 4.53851C7.9984 4.46133 8.40053 4.50094 8.76599 4.65232C9.13144 4.80369 9.44379 5.06004 9.66356 5.38894C9.88332 5.71783 10.0006 6.10451 10.0006 6.50008C10 7.03032 9.78908 7.53866 9.41414 7.9136C9.03921 8.28854 8.53086 8.49945 8.00062 8.50008Z" fill="#123295"/>
</svg>
