<svg width="16" height="16" viewBox="0 0 16 16" fill="none" xmlns="http://www.w3.org/2000/svg">
<path d="M8.00066 7.24687L14.3073 3.54687C14.1258 3.27824 13.8816 3.05778 13.5959 2.90448C13.3102 2.75118 12.9915 2.66963 12.6673 2.66687H3.334C3.00812 2.66673 2.68714 2.74622 2.39899 2.89843C2.11084 3.05064 1.86424 3.27095 1.68066 3.5402L8.00066 7.24687Z" fill="#123295"/>
<path d="M8.66732 8.39351C8.46476 8.51101 8.23482 8.57309 8.00065 8.57351C7.76708 8.57512 7.53719 8.51535 7.33398 8.40017L1.33398 4.88684V11.3335C1.33398 11.8639 1.5447 12.3726 1.91977 12.7477C2.29484 13.1228 2.80355 13.3335 3.33398 13.3335H12.6673C13.1978 13.3335 13.7065 13.1228 14.0815 12.7477C14.4566 12.3726 14.6673 11.8639 14.6673 11.3335V4.88684L8.66732 8.39351Z" fill="#123295"/>
</svg>
