<svg width="15" height="16" viewBox="0 0 15 16" fill="none" xmlns="http://www.w3.org/2000/svg">
<path d="M13.8102 10.329C12.982 9.60123 11.7382 8.77698 10.0434 8.33743C11.1288 7.54861 11.8359 6.26953 11.8359 4.82812C11.8359 2.43732 9.89081 0.492188 7.5 0.492188C5.10919 0.492188 3.16406 2.43732 3.16406 4.82812C3.16406 6.26953 3.87122 7.54861 4.95667 8.33743C3.26184 8.77698 2.01801 9.60123 1.18982 10.329C0.433777 10.9933 0 11.9542 0 12.9653V15.4922H15V12.9653C15 11.9542 14.5662 10.9933 13.8102 10.329ZM4.33594 4.82812C4.33594 3.0835 5.75537 1.66406 7.5 1.66406C9.24463 1.66406 10.6641 3.0835 10.6641 4.82812C10.6641 6.57275 9.24463 7.99219 7.5 7.99219C5.75537 7.99219 4.33594 6.57275 4.33594 4.82812ZM13.8281 14.3203H1.17188V12.9653C1.17188 12.2913 1.46036 11.6512 1.96335 11.2093C3.01007 10.2896 4.82025 9.19336 7.5 9.19336C10.1797 9.19336 11.9899 10.2896 13.0367 11.2093C13.5396 11.6512 13.8281 12.2913 13.8281 12.9653V14.3203Z" fill="white"/>
</svg>
